<?xml version="1.0" encoding="UTF-8" standalone="no"?>
<!-- Created with Inkscape (http://www.inkscape.org/) -->

<svg
   version="1.1"
   id="svg1"
   width="2040"
   height="600"
   viewBox="0 0 2040 600"
   sodipodi:docname="theta-logo.svg"
   inkscape:version="1.3.2 (091e20ef0f, 2023-11-25, custom)"
   xmlns:inkscape="http://www.inkscape.org/namespaces/inkscape"
   xmlns:sodipodi="http://sodipodi.sourceforge.net/DTD/sodipodi-0.dtd"
   xmlns="http://www.w3.org/2000/svg"
   xmlns:svg="http://www.w3.org/2000/svg">
  <defs
     id="defs1" />
  <sodipodi:namedview
     id="namedview1"
     pagecolor="#ffffff"
     bordercolor="#000000"
     borderopacity="0.25"
     inkscape:showpageshadow="2"
     inkscape:pageopacity="0.0"
     inkscape:pagecheckerboard="0"
     inkscape:deskcolor="#d1d1d1"
     inkscape:zoom="0.48574302"
     inkscape:cx="1190.959"
     inkscape:cy="12.352211"
     inkscape:window-width="1920"
     inkscape:window-height="1020"
     inkscape:window-x="0"
     inkscape:window-y="0"
     inkscape:window-maximized="1"
     inkscape:current-layer="g1" />
  <g
     inkscape:groupmode="layer"
     inkscape:label="Image"
     id="g1">
    <path
       id="path4"
       style="fill:#000000"
       d="M 950.58203 69 C 894.16502 69 894.1655 69.00001 893.15234 73.75 C 892.5951 76.362494 870.95861 178.69045 845.07031 301.14453 C 819.18204 423.5986 798 524.06134 798 524.39453 C 798 524.72771 823.39377 525 854.43164 525 C 907.31075 525 910.89803 524.88981 911.38867 523.25 C 911.67666 522.2875 920.04095 482.69629 929.97461 435.26953 C 939.90827 387.84275 949.62286 343.51763 951.56445 336.76953 C 953.50606 330.02142 956.72948 320.675 958.72656 316 C 960.72363 311.325 964.18853 304.38781 966.42773 300.58398 C 968.66694 296.78017 972.77157 291.32263 975.54688 288.45508 C 978.32216 285.58753 983.04718 281.98038 986.04688 280.43945 C 990.44026 278.18261 992.87547 277.62356 998.57617 277.56836 C 1004.75 277.50856 1006.2813 277.88249 1010.5762 280.50391 C 1014.2746 282.76124 1016.1841 284.85859 1018.25 288.93359 C 1020.686 293.73858 1021 295.46122 1021 304.01953 C 1021 309.33346 1020.5007 317.46684 1019.8906 322.0918 C 1019.2804 326.71673 1009.8332 373.4751 998.89648 426 C 987.95976 478.5249 978.82623 522.2875 978.59961 523.25 C 978.40525 524.07545 979.10416 524.513 986.53906 524.74414 C 993.97397 524.97528 1008.1452 525 1034.8926 525 C 1091.5971 525 1091.5974 524.99984 1108.4355 445.25 C 1117.6965 401.38758 1126.7401 358.27194 1128.5332 349.4375 C 1130.3262 340.60306 1132.6155 327.32802 1133.6211 319.9375 C 1134.9418 310.23103 1135.4453 300.25289 1135.4453 284 C 1135.4453 264.13852 1135.1822 260.47284 1133.2383 252.74609 C 1132.0271 247.93186 1129.7457 240.66866 1128.168 236.60547 C 1126.5902 232.54226 1123.1924 226.05044 1120.6191 222.17969 C 1118.0458 218.30891 1112.5064 211.93586 1108.3086 208.01562 C 1102.7158 202.79251 1098.2478 199.71661 1091.5879 196.50586 C 1086.5893 194.09602 1079.8 191.42855 1076.5 190.57812 C 1073.2 189.72771 1065.6179 188.49619 1059.6504 187.8418 C 1051.2955 186.92561 1046.1998 186.9228 1037.4961 187.83008 C 1031.2795 188.47809 1022.3102 190.13448 1017.5645 191.50977 C 1012.8187 192.88504 1005.4635 195.75603 1001.2188 197.89062 C 996.97367 200.02522 990.71086 203.86987 987.30078 206.43359 C 983.8907 208.99733 978.20253 214.22289 974.66211 218.04688 C 971.12168 221.87085 967.77032 225 967.21484 225 C 966.65936 225 968.20334 219.93748 970.64453 213.75 C 973.08571 207.56252 976.86943 196.91426 979.05273 190.08789 C 981.23605 183.26153 984.58396 171.78649 986.49219 164.58789 C 988.40041 157.3893 993.79471 133.53563 998.48047 111.57812 C 1003.1662 89.620601 1007 71.058071 1007 70.328125 C 1007 69.240905 996.79876 69 950.58203 69 z M 731.06836 127 C 693.09901 127 693.09983 126.99978 673.49219 161.47656 C 662.70798 180.4388 653.34698 196.30134 652.69141 196.72656 C 652.03584 197.15179 637.54996 203.16055 620.5 210.08008 C 589.50006 222.66107 589.5002 222.66113 583.8125 248.58008 C 580.68425 262.83549 578.0968 275.2875 578.0625 276.25 C 578.005 277.86552 579.6906 278 600 278 C 618.9796 278 622 278.20748 622 279.51367 C 622 280.3464 615.94336 310.02645 608.54102 345.46875 C 601.13867 380.91105 594.28888 414.99269 593.31836 421.20508 C 592.0998 429.00514 591.55555 438.22461 591.56055 451 C 591.56655 466.66623 591.90037 470.82648 593.74414 478.16406 C 594.94165 482.92972 597.31982 489.79009 599.0293 493.4082 C 600.73879 497.02633 604.12841 502.43032 606.56055 505.41602 C 608.99267 508.40171 614.33721 513.08763 618.4375 515.83008 C 622.5378 518.57252 628.50525 521.80056 631.69727 523.00391 C 634.88927 524.20727 640.875 526.05157 645 527.10156 C 649.125 528.15155 655.875 529.43247 660 529.94922 C 664.125 530.466 676.05002 530.7095 686.5 530.49023 C 696.94998 530.27096 710.90002 529.37583 717.5 528.5 C 724.09998 527.62417 733.55 526.02774 738.5 524.95312 C 743.45 523.87853 751.77502 521.59733 757 519.88477 C 762.22498 518.17219 769.3125 515.50197 772.75 513.94922 C 778.99998 511.12604 779 511.1247 779 468.45508 C 779 428.20613 778.9007 425.82759 777.25 426.51562 C 776.2875 426.91681 771.22498 428.79908 766 430.69922 C 760.77502 432.59936 751.77498 435.31413 746 436.73047 C 739.27141 438.38068 732.44695 439.33974 727 439.40234 C 720.17802 439.48064 717.83064 439.10518 715.10547 437.5 C 713.23796 436.4 710.76296 434.22622 709.60547 432.66992 C 707.76399 430.19397 707.50724 428.50657 707.55664 419.16992 C 707.58924 413.00783 708.36569 404.90873 709.39453 400 C 710.37439 395.325 716.53387 366.97494 723.08203 337 C 729.63018 307.02506 735.22476 281.4875 735.51367 280.25 C 736.03894 278 736.03866 278 778.51953 278 C 801.88401 278 821 277.66281 821 277.25 C 821 276.83719 825.05 257.82434 830 235 C 834.95 212.17566 839 193.38781 839 193.25 C 839 193.11219 820.09996 193 797 193 C 773.90004 193 755 192.66122 755 192.24805 C 755 191.83488 757.91752 177.99734 761.48242 161.49805 C 765.04734 144.99874 768.20444 130.4875 768.5 129.25 C 769.03737 127 769.0377 127 731.06836 127 z M 1599.0684 127 C 1561.099 127 1561.0999 126.99978 1541.4922 161.47656 C 1530.7079 180.4388 1521.347 196.30134 1520.6914 196.72656 C 1520.0359 197.15179 1505.5593 203.15843 1488.5215 210.07422 C 1457.5437 222.6484 1457.5441 222.64844 1455.873 230.07422 C 1454.9539 234.15839 1453.6538 240.18473 1452.9844 243.4668 C 1451.7672 249.43419 1451.7671 249.43516 1448.9941 243.32617 C 1447.4689 239.96625 1444.422 234.58149 1442.2227 231.35938 C 1440.0234 228.13725 1434.9105 222.30286 1430.8613 218.39453 C 1426.8121 214.48623 1420.8231 209.57761 1417.5508 207.48633 C 1414.2786 205.39504 1407.9786 201.99075 1403.5508 199.92188 C 1399.1231 197.85299 1391.45 195.00857 1386.5 193.60156 C 1381.55 192.19454 1373 190.29037 1367.5 189.36914 C 1360.5984 188.21314 1351.3033 187.67451 1337.5 187.63281 C 1325.9275 187.59781 1313.4969 188.1326 1308 188.90234 C 1302.775 189.63401 1293.2134 191.52408 1286.752 193.10156 C 1280.2904 194.67904 1271.0648 197.49016 1266.25 199.34961 C 1261.4353 201.20907 1253.4258 204.77505 1248.4512 207.27344 C 1243.4766 209.77184 1235.1521 214.65487 1229.9531 218.125 C 1223.9425 222.13682 1215.9174 228.99795 1207.916 236.9668 C 1200.995 243.85965 1193.0213 252.64876 1190.1953 256.49609 C 1187.3694 260.34345 1182.3061 268.1089 1178.9434 273.75391 C 1175.5808 279.39891 1170.6331 288.92259 1167.9492 294.91797 C 1165.2653 300.91333 1161.2716 311.25442 1159.0742 317.89844 C 1156.8768 324.54244 1153.9794 335.27202 1152.6367 341.74023 C 1151.294 348.20847 1149.5891 357.55 1148.8477 362.5 C 1147.9701 368.35965 1147.5103 380.74658 1147.5293 398 C 1147.5543 421.62136 1147.7994 425.60584 1149.7852 434.6875 C 1151.0105 440.2911 1153.4117 448.84112 1155.1211 453.6875 C 1156.8304 458.53387 1159.5896 465.2 1161.252 468.5 C 1162.9145 471.8 1166.0894 477.2 1168.3086 480.5 C 1170.5278 483.8 1175.9789 490.26012 1180.4219 494.85547 C 1184.8649 499.45081 1191.2297 505.16897 1194.5664 507.5625 C 1197.9032 509.95603 1204.2032 513.74421 1208.5664 515.98047 C 1212.9297 518.21673 1221.225 521.5706 1227 523.43359 C 1232.775 525.29661 1242 527.53465 1247.5 528.4082 C 1253 529.28175 1259.525 530.17754 1262 530.39844 C 1264.475 530.61936 1275.5 530.63709 1286.5 530.4375 C 1297.5 530.23788 1312.125 529.34718 1319 528.45898 C 1325.875 527.5708 1335.55 525.9715 1340.5 524.9043 C 1345.45 523.8371 1355.125 521.13907 1362 518.9082 C 1368.875 516.67736 1381.25 511.84751 1389.5 508.17578 C 1404.5 501.49994 1404.5004 501.49992 1404.7617 461.25 C 1404.9055 439.11254 1404.8527 421 1404.6465 421 C 1404.4401 421 1397.799 424.10664 1389.8867 427.9043 C 1381.9744 431.70193 1371 436.48053 1365.5 438.52148 C 1360 440.56246 1351.4179 443.26883 1346.4297 444.53711 C 1341.4415 445.80539 1333.8715 447.32879 1329.6074 447.92188 C 1325.3433 448.51494 1316.3754 448.99236 1309.6777 448.98438 C 1302.4809 448.97538 1294.9355 448.36571 1291.2305 447.49219 C 1287.7825 446.67924 1282.8325 444.93156 1280.2305 443.60742 C 1277.6286 442.28328 1273.7511 439.4669 1271.6133 437.34961 C 1269.4755 435.23232 1266.3672 430.62468 1264.7051 427.11133 C 1262.1712 421.75504 1261.606 419.15156 1261.2129 410.98828 C 1260.7441 401.25271 1260.7456 401.25238 1287.623 400.73242 C 1304.2183 400.41137 1319.0907 399.58013 1326.5 398.55859 C 1333.1 397.64862 1343.675 395.76694 1350 394.37695 C 1356.325 392.98697 1366.225 390.28322 1372 388.36914 C 1377.775 386.45505 1386.5736 382.95989 1391.5527 380.60156 C 1396.5319 378.24322 1403.0569 374.74153 1406.0527 372.82031 C 1409.0486 370.89909 1414.9803 366.52354 1419.2344 363.0957 C 1423.4884 359.66788 1429.9333 353.18128 1433.5566 348.68164 C 1437.2655 344.07581 1442.2981 336.11959 1445.0723 330.47656 C 1447.8355 324.85584 1451.1034 316.10447 1452.5117 310.55273 C 1453.893 305.10751 1455.3556 295.66801 1455.7617 289.57617 C 1456.5001 278.50011 1456.5 278.50074 1473.25 278.22656 C 1487.7761 277.98879 1490 278.15627 1490 279.49023 C 1490 280.33626 1483.9433 310.02645 1476.541 345.46875 C 1469.1386 380.91105 1462.289 414.99269 1461.3184 421.20508 C 1460.0999 429.00514 1459.5605 438.22461 1459.5605 451 C 1459.5705 466.74366 1459.8962 470.81009 1461.7754 478.29492 C 1462.99 483.13231 1465.6475 490.50039 1467.6797 494.66797 C 1470.159 499.75238 1473.3841 504.26165 1477.4844 508.37305 C 1480.8453 511.74306 1486.2001 516.04102 1489.3828 517.92383 C 1492.5656 519.80663 1498.7132 522.59993 1503.0449 524.13281 C 1507.3766 525.66569 1514.8766 527.71686 1519.7109 528.68945 C 1526.546 530.06457 1533.2809 530.44836 1550 530.41406 C 1561.825 530.38986 1576 529.80851 1581.5 529.12305 C 1587 528.43759 1596.9 526.79613 1603.5 525.47461 C 1610.1 524.15309 1619.775 521.65265 1625 519.91797 C 1630.225 518.18329 1637.3125 515.49374 1640.75 513.94336 C 1647 511.12449 1647 511.1247 1647 468.45508 C 1647 428.20613 1646.901 425.82759 1645.25 426.51562 C 1644.2875 426.91681 1639.225 428.79908 1634 430.69922 C 1628.775 432.59936 1619.775 435.31413 1614 436.73047 C 1607.2714 438.38068 1600.447 439.33974 1595 439.40234 C 1588.178 439.48064 1585.8307 439.10518 1583.1055 437.5 C 1581.238 436.4 1578.763 434.22622 1577.6055 432.66992 C 1575.764 430.19397 1575.5076 428.50657 1575.5566 419.16992 C 1575.5896 413.00783 1576.3656 404.90873 1577.3945 400 C 1578.3743 395.325 1584.5338 366.97494 1591.082 337 C 1597.6301 307.02506 1603.2248 281.4875 1603.5137 280.25 C 1604.039 278 1604.0387 278 1646.5195 278 C 1669.884 278 1689 277.66281 1689 277.25 C 1689 276.83719 1693.05 257.82434 1698 235 C 1702.95 212.17566 1707 193.38781 1707 193.25 C 1707 193.11219 1688.1 193 1665 193 C 1641.9 193 1623 192.66122 1623 192.24805 C 1623 191.83488 1625.9175 177.99734 1629.4824 161.49805 C 1633.0473 144.99874 1636.2045 130.4875 1636.5 129.25 C 1637.0374 127 1637.0376 127 1599.0684 127 z M 1830.9785 187.14062 C 1827.8282 187.14262 1824.6672 187.37615 1820.6445 187.84375 C 1814.9488 188.50582 1806.9613 189.96289 1802.8945 191.08203 C 1798.8276 192.20117 1791 195.2827 1785.5 197.92969 C 1780 200.57667 1772.2214 205.07335 1768.2148 207.92188 C 1764.2082 210.77039 1757.7333 216.116 1753.8262 219.80078 C 1749.9191 223.48555 1744.1101 229.69761 1740.916 233.60547 C 1737.722 237.51332 1732.5931 244.46665 1729.5195 249.05859 C 1726.446 253.65055 1720.7735 263.63217 1716.9141 271.23828 C 1713.0547 278.84439 1707.4648 291.3051 1704.4922 298.92969 C 1701.5196 306.55428 1697.4707 318.35206 1695.4941 325.14648 C 1693.5175 331.94091 1690.5994 344.02502 1689.0098 352 C 1687.4201 359.97498 1685.5883 371.81291 1684.9395 378.30664 C 1684.2205 385.49896 1683.9546 398.59187 1684.2578 411.80664 C 1684.6232 427.7316 1685.3227 436.66383 1686.8867 445.39844 C 1688.0585 451.94254 1690.5644 461.92014 1692.4551 467.57031 C 1694.3457 473.22051 1697.3199 480.69119 1699.0645 484.17188 C 1700.809 487.65254 1704.1813 493.24329 1706.5586 496.5957 C 1708.9358 499.94814 1714.2648 505.85075 1718.4004 509.71289 C 1722.9891 513.99822 1728.9767 518.32689 1733.7656 520.81836 C 1738.0816 523.06379 1745.0001 525.82891 1749.1406 526.96484 C 1753.2811 528.10077 1759.3307 529.41807 1762.584 529.89258 C 1765.8374 530.36708 1772.1 530.80925 1776.5 530.87305 C 1780.9 530.93685 1788.795 530.34023 1794.0449 529.54883 C 1799.2947 528.75743 1807.5632 526.67335 1812.4199 524.91602 C 1817.2766 523.15866 1824.5098 519.54049 1828.4922 516.87695 C 1832.4745 514.21343 1838.9909 508.76452 1842.9727 504.76758 C 1846.9544 500.77062 1851.5902 495.5875 1853.2754 493.25 C 1854.9605 490.9125 1856.9524 489 1857.7031 489 C 1858.7407 489 1858.939 490.13884 1858.5273 493.75 C 1858.2294 496.3625 1857.5403 503.67502 1856.9961 510 C 1856.4519 516.32498 1856.0039 522.2875 1856.0039 523.25 C 1856.0039 524.89106 1858.8168 525.00019 1901.25 524.99219 C 1946.5 524.98319 1946.5004 524.98303 1979.4355 369.24219 C 1997.55 283.58469 2013.3655 208.88324 2014.582 203.24023 C 2016.7936 192.98023 2016.7931 192.98021 1971.2539 193.24023 C 1925.715 193.50025 1925.7153 193.49913 1918.1074 213.74023 C 1913.9231 224.87284 1910.0033 233.98523 1909.3965 233.99023 C 1908.7897 233.99523 1906.1937 230.84228 1903.627 226.98242 C 1901.0604 223.12258 1895.7539 216.58759 1891.834 212.46094 C 1887.9141 208.33427 1881.7351 202.98966 1878.1035 200.58398 C 1874.4718 198.17833 1869.7 195.43686 1867.5 194.49219 C 1865.3 193.54752 1860.8 191.93103 1857.5 190.90039 C 1854.2 189.86975 1846.8875 188.4905 1841.25 187.83398 C 1837.2684 187.37031 1834.1289 187.13909 1830.9785 187.14062 z M 1322.1113 264.18555 C 1325.3448 263.95167 1330.1311 264.29779 1332.7461 264.95508 C 1335.3612 265.61236 1338.9673 267.2673 1340.7598 268.63281 C 1342.5524 269.99831 1344.9393 272.92122 1346.0645 275.12695 C 1347.1898 277.33271 1348.361 281.2588 1348.668 283.85156 C 1349.0112 286.74906 1348.592 291.05804 1347.5781 295.0332 C 1346.6713 298.59031 1344.3795 303.84089 1342.4863 306.70117 C 1340.5932 309.56144 1336.6456 313.71352 1333.7129 315.92773 C 1330.7802 318.14195 1325.4816 321.25411 1321.9395 322.8457 C 1318.3973 324.4373 1312.575 326.51329 1309 327.45703 C 1304.9242 328.53296 1296.7717 329.37708 1287.1406 329.72266 C 1271.781 330.27379 1271.7805 330.27391 1272.4609 326.88672 C 1272.8352 325.02376 1273.7806 320.89006 1274.5625 317.69922 C 1275.3445 314.50839 1277.3581 308.6008 1279.0352 304.57227 C 1280.7123 300.54371 1284.1342 294.15364 1286.6406 290.37305 C 1289.1471 286.59244 1293.9666 280.66535 1297.3496 277.20117 C 1301.2102 273.24807 1305.8714 269.7324 1309.8672 267.75781 C 1314.1039 265.66414 1318.199 264.46855 1322.1113 264.18555 z M 1858.3594 278.3125 C 1859.9113 278.328 1861.3723 278.55617 1863.0391 279.00195 C 1866.0419 279.80506 1868.8461 281.59516 1871.6172 284.47656 C 1874.3775 287.34682 1876.4439 290.85786 1877.8867 295.12891 C 1879.0704 298.63285 1880.5235 305.6031 1881.1152 310.61719 C 1881.8929 317.21067 1881.8788 323.71438 1881.0645 334.11719 C 1880.4454 342.02808 1878.8158 354.05661 1877.4434 360.84766 C 1876.071 367.63869 1873.3526 378.13139 1871.4023 384.16406 C 1869.4521 390.19675 1866.564 398.01251 1864.9844 401.5332 C 1863.4047 405.05391 1859.8397 411.48 1857.0605 415.8125 C 1854.2814 420.145 1849.3174 426.25415 1846.0312 429.38867 C 1842.7452 432.52322 1838.0185 435.98982 1835.5273 437.0918 C 1833.0361 438.19379 1828.862 439.27746 1826.25 439.5 C 1823.6381 439.72255 1819.762 439.4192 1817.6367 438.82617 C 1815.5059 438.23164 1811.8648 435.89676 1809.5215 433.62305 C 1806.7852 430.96792 1804.5147 427.44722 1803.1445 423.73438 C 1801.974 420.56288 1800.5338 413.81286 1799.9434 408.73438 C 1799.3483 403.61588 1799.1528 394.59763 1799.5059 388.5 C 1799.8561 382.45002 1800.7689 373.15133 1801.5332 367.83594 C 1802.2975 362.52053 1804.0879 353.56822 1805.5137 347.94336 C 1806.9396 342.31849 1809.7179 333.61908 1811.6875 328.60938 C 1813.6571 323.59967 1816.6173 316.80737 1818.2656 313.51758 C 1819.9139 310.22777 1823.2035 304.58979 1825.5762 300.98828 C 1827.9488 297.38677 1832.0023 292.30034 1834.582 289.68359 C 1837.1618 287.06687 1841.1641 283.81615 1843.4766 282.46094 C 1845.7891 281.10572 1850.1325 279.50411 1853.1289 278.90234 C 1855.1641 278.49362 1856.8074 278.29697 1858.3594 278.3125 z " />
    <path
       style="fill:#900028"
       d="m 280,23.894531 c -5.42919,-9.49e-4 -8.78562,0.42162 -13.77734,0.556641 -6.95392,0.185771 -14.92053,0.261364 -18.72266,0.582031 -0.46807,0.03948 -1.41008,0.200574 -1.93164,0.25 -1.36023,0.11465 -3.81508,0.07418 -5.02344,0.203125 -8.22531,0.87774 -20.77615,2.731929 -27.89062,4.119141 -7.11449,1.38721 -18.15973,4.026486 -24.54492,5.865234 -6.38519,1.838749 -16.33439,5.223591 -22.10938,7.523438 -5.77499,2.299847 -14.91646,6.449979 -20.31445,9.220703 -5.39799,2.770725 -13.273,7.287442 -17.5,10.037109 -4.227,2.749667 -10.61055,7.277851 -14.18555,10.0625 -3.575,2.784649 -9.58618,7.789111 -13.35742,11.123047 -3.771244,3.333936 -11.049917,10.920388 -16.175783,16.85742 -1.916298,2.21955 -3.750994,4.94609 -5.943359,7.72852 -0.759746,0.93572 -2.244628,2.45996 -2.789063,3.18554 -0.79031,1.05328 -1.774747,2.64913 -2.722656,3.98438 -1.441249,1.96427 -3.430831,4.25739 -4.441407,5.77539 -0.886563,1.33172 -1.996187,3.48119 -3.058593,5.19727 -0.199358,0.31494 -0.521995,0.73667 -0.705078,1.03125 -0.221424,0.35625 -0.675845,1.3211 -0.925782,1.74023 -2.810749,4.66515 -5.76415,9.34787 -7.791015,13.23633 -3.247044,6.22931 -7.99242,16.65353 -10.544922,23.16406 -0.866266,2.20954 -1.721039,5.16766 -2.720703,7.99805 -0.05718,0.15995 -0.221866,0.4957 -0.275391,0.64844 -0.118049,0.33686 -0.286656,1.00499 -0.412109,1.37304 -1.691531,4.88702 -3.541904,9.83819 -4.609375,13.54688 -1.85697,6.45161 -4.54245,17.25835 -5.96875,24.01367 -0.288706,1.36738 -0.59198,3.80697 -0.917969,5.55273 -0.02304,0.121 -0.101635,0.41425 -0.123047,0.5293 -0.116932,0.62829 -0.34683,2.33675 -0.488281,3.1582 -1.101427,6.25442 -2.300523,12.66569 -3.009766,18.19141 -0.312422,2.43408 -0.559417,6.97517 -0.898437,10.41406 -0.352137,3.5873 -0.759541,7.11605 -0.994141,11.54688 -0.402037,5.02896 -0.941576,9.35995 -1.179687,13.68945 -0.620096,11.27499 -0.842442,27.70001 -0.496094,36.5 0.346347,8.79999 1.082739,21.40001 1.636719,28 0.553978,6.59999 1.684062,16.72501 2.511718,22.5 0.827656,5.77499 2.586811,15.90564 3.910157,22.51367 1.323345,6.60804 4.039894,17.63305 6.035156,24.5 1.995262,6.86696 5.669534,17.66134 8.166016,23.98633 2.496481,6.32499 6.544772,15.50139 8.996093,20.39258 2.451321,4.89118 6.950967,12.92634 10,17.85547 3.049032,4.92912 8.288538,12.62774 11.642578,17.10742 1.058743,1.41406 3.549881,3.98174 5.248047,5.99805 0.532473,0.65923 1.185722,1.66426 1.664063,2.23437 1.073524,1.27947 2.746915,2.85064 4.126953,4.38477 2.106475,2.33673 3.640698,4.37813 5.585937,6.38476 1.166742,1.20357 2.329066,2.12166 3.632813,3.41016 0.928786,0.92572 1.97085,2.18765 2.77539,2.94922 1.140838,1.07989 2.633128,2.19364 4.015628,3.42773 2.68413,2.48407 5.86215,5.7287 7.60156,7.13477 4.125,3.33447 11.86366,8.92856 17.19727,12.43164 0.91411,0.60038 2.92032,1.54819 4.11328,2.26953 0.2595,0.16308 0.58608,0.41464 0.83398,0.56836 3.2794,2.03344 7.91451,4.36792 12.33594,6.69922 2.4768,1.29762 4.5154,2.64714 6.7168,3.70507 4.20731,2.02192 8.50148,3.59017 13.26562,5.57422 2.47051,1.01399 5.06153,2.22931 6.97266,2.94141 0.0213,0.008 0.0761,0.0213 0.0976,0.0293 1.33872,0.50774 3.42676,1.52552 4.4668,1.87695 5.77499,1.95138 16.12501,4.92159 23,6.59961 6.87499,1.67801 18.80001,3.96299 26.5,5.07812 7.69999,1.11514 19.17501,2.39437 25.5,2.84375 6.15748,0.43749 16.91828,0.83657 24.33789,0.92579 0.0239,6.5e-4 0.13901,0.007 0.16211,0.008 0.002,6e-5 0.0172,-6e-5 0.0195,0 0.14546,0.002 0.33778,0.0162 0.48047,0.0176 7.42499,0.0731 20.02501,-0.32668 28,-0.88868 7.97499,-0.562 20.57501,-1.90345 28,-2.98046 7.42499,-1.07703 18.90001,-3.28495 25.5,-4.90625 6.59999,-1.62131 17.40001,-4.79199 24,-7.04688 0.65684,-0.22441 1.839,-0.81799 2.58789,-1.0918 0.10063,-0.0363 0.31428,-0.0874 0.41211,-0.12304 1.55976,-0.5683 3.99496,-1.77243 6.00391,-2.58789 5.90996,-2.38848 11.96272,-4.70296 16.99609,-7.17578 7.69999,-3.78292 18.05,-9.58131 23,-12.88477 4.95,-3.30345 12.60663,-8.91253 17.01367,-12.46484 4.40704,-3.55232 12.3148,-10.94229 17.57422,-16.42188 0.92508,-0.9638 2.02291,-2.45729 3.07617,-3.61523 0.30909,-0.3361 0.82423,-0.75844 1.10938,-1.07618 1.0677,-1.18973 2.23913,-2.85304 3.46484,-4.29882 3.58453,-4.16399 7.38585,-8.28685 9.83789,-11.56446 0.65841,-0.88007 1.4634,-2.33744 2.20508,-3.38476 0.036,-0.0503 0.11108,-0.13198 0.14648,-0.18164 0.23271,-0.32645 0.54789,-0.90913 0.79493,-1.26368 3.98033,-5.7239 8.57202,-12.4792 11.45117,-17.57617 3.67033,-6.49761 8.53262,-16.05228 10.80469,-21.23242 2.27206,-5.18012 5.93451,-14.63014 8.13867,-21 2.20416,-6.36985 5.50281,-17.65704 7.33203,-25.08203 1.82922,-7.42499 4.09442,-18.00001 5.0332,-23.5 0.93878,-5.49999 2.37173,-15.17501 3.1836,-21.5 0.0987,-0.76878 0.13173,-3.9016 0.22851,-4.93555 0.0671,-0.59129 0.23072,-1.53015 0.28711,-2.06445 0.17433,-1.65172 0.12636,-7.45362 0.26758,-9.875 0.47422,-8.52213 1.04529,-15.1474 1.24805,-26.93555 0.36032,-20.94839 0.1428,-37.30071 -0.61915,-46.5 -0.24192,-2.92085 -0.78604,-6.77968 -1.18945,-10.55078 -0.10202,-0.94368 -0.121,-2.17998 -0.23633,-3.11914 -0.17224,-1.4027 -0.3761,-2.54408 -0.57226,-4.05078 -0.44308,-3.72931 -0.77213,-7.60917 -1.18164,-10.46875 -0.3467,-2.42094 -0.94865,-5.12769 -1.4336,-8.01758 -0.0168,-0.0988 -0.0501,-0.36857 -0.0664,-0.46289 -0.0314,-0.18148 -0.12191,-0.58134 -0.15625,-0.77539 -1.00788,-5.90176 -2.01029,-12.21497 -2.90625,-16.24414 -1.40648,-6.32499 -4.07767,-16.5402 -5.93555,-22.70117 -1.85787,-6.16098 -5.22269,-15.83599 -7.47851,-21.5 -0.77117,-1.93627 -2.29248,-4.9269 -3.45899,-7.55469 -0.26517,-0.62992 -0.64031,-1.79367 -0.87891,-2.33594 -0.42826,-0.97335 -1.27581,-2.40509 -1.8164,-3.55273 -1.46485,-3.13741 -2.66702,-6.11389 -3.96289,-8.65625 -1.21359,-2.38093 -2.76601,-4.75691 -4.3086,-7.51953 -0.26025,-0.45883 -0.53686,-1.11005 -0.7832,-1.53321 -0.24134,-0.41457 -0.63567,-0.95961 -0.89844,-1.40234 -2.08496,-3.63245 -4.21007,-7.7007 -5.7539,-10.04492 -1.54051,-2.33918 -3.7664,-5.20272 -5.9043,-8.16406 -0.0448,-0.0636 -0.11205,-0.18363 -0.15625,-0.2461 -0.0269,-0.038 -0.10738,-0.11972 -0.13477,-0.1582 -2.13292,-2.94441 -4.1796,-5.9885 -5.8789,-8.13086 -3.49005,-4.4 -10.4274,-12.054657 -15.41602,-17.009766 C 458.58169,83.535125 450.675,76.506228 446,72.869141 c -4.675,-3.637088 -11.75582,-8.713833 -15.73633,-11.28125 -3.9805,-2.567418 -11.95396,-7.086276 -17.71679,-10.041016 -5.76285,-2.95474 -15.10508,-7.157098 -20.76172,-9.339844 -5.65665,-2.182746 -15.14606,-5.361235 -21.08789,-7.0625 -5.94184,-1.701264 -16.53709,-4.211707 -23.54493,-5.578125 -7.00784,-1.366417 -19.47195,-3.200787 -27.69726,-4.076172 -1.19091,-0.126743 -3.63751,-0.08797 -4.98438,-0.201172 -0.53317,-0.05062 -1.49314,-0.215582 -1.9707,-0.255859 -3.83189,-0.323177 -11.85323,-0.402268 -18.86914,-0.587891 C 288.67776,24.311374 285.33542,23.895464 280,23.894531 Z m -0.5,94.783199 c 9.34999,-0.0141 20.6,0.52817 25,1.20704 4.4,0.67886 12.27501,2.36868 17.5,3.7539 5.22499,1.38522 13.65592,4.47652 18.73438,6.86914 5.05348,2.38085 12.4955,6.62521 16.61328,9.46289 0.12565,0.0895 0.24748,0.21097 0.375,0.30274 4.12844,2.90029 10.77306,8.66153 14.99218,13.06445 4.14997,4.33075 9.43936,10.83842 12.20118,14.89258 0.62748,0.92615 1.13,1.85729 1.78125,2.87109 2.57765,4.11329 5.80068,9.57289 7.84961,13.67383 2.39751,4.79866 6.15922,14.12462 8.35937,20.72461 2.20016,6.59999 5.1426,17.66365 6.53906,24.58594 1.33616,6.62331 3.07761,17.4769 4.04297,24.87695 0.12391,1.10519 0.21417,2.00721 0.33594,3.1582 1.08814,9.55247 1.5332,20.57741 1.5332,41.87891 0,8.56087 -0.13825,14.33986 -0.2832,20.20117 -0.36692,8.60459 -0.75337,16.74983 -1.27149,21.97461 -0.0591,0.51136 -0.0695,1.23515 -0.13281,1.73828 -0.92757,7.37771 -2.79991,18.91884 -4.16211,25.64649 -1.36219,6.72764 -4.06247,17.07158 -6,22.98633 -1.7665,5.39264 -4.89367,13.12467 -7.3125,18.46289 -0.57837,1.2489 -1.05938,2.2281 -1.67187,3.48242 -2.30962,4.63887 -5.55741,10.36073 -8.31836,14.65429 -0.69528,1.05892 -1.23785,1.87995 -1.94141,2.90235 -3.2411,4.62058 -8.15317,10.77449 -11.70508,14.4082 -0.0371,0.0388 -0.0664,0.0747 -0.10351,0.11328 -2.98973,3.04584 -6.7223,6.19041 -9.9043,8.80078 -1.98501,1.54174 -3.62572,2.85185 -5.7168,4.31836 -2.38109,1.59409 -4.87888,3.15321 -7.52734,4.69141 -2.16296,1.24695 -4.10792,2.19339 -6.41797,3.36133 -3.77647,1.83576 -8.0235,3.85766 -11.37305,5.09961 -0.60221,0.21331 -1.23508,0.37072 -1.875,0.58789 -4.56431,1.56569 -11.39082,3.55029 -16.32812,4.60937 -7.3197,1.57012 -14.18364,2.12156 -28.49023,2.41406 -0.68404,0.0102 -0.78725,0.0409 -1.51368,0.0508 -10.94026,0.19244 -23.12065,-0.0759 -27.10547,-0.61133 -3.68843,-0.49558 -10.33087,-1.87618 -15.45312,-3.11914 -1.58207,-0.39494 -3.08021,-0.93554 -4.81836,-1.43555 -4.77297,-1.39611 -10.29501,-3.12236 -13.8418,-4.64062 -4.70567,-2.02777 -10.23517,-4.85949 -14.69922,-7.55274 -1.80611,-1.14064 -4.44325,-3.15618 -7.0371,-5.05469 -2.87778,-2.15803 -5.45009,-4.24041 -8.17188,-6.64843 -2.95876,-2.63995 -5.81897,-5.50791 -8.48242,-8.47657 -2.14586,-2.43076 -3.93454,-4.64085 -5.92578,-7.21093 -2.78616,-3.78142 -5.77399,-7.84269 -7.71485,-11.00586 -0.30641,-0.50626 -0.51008,-0.8866 -0.8125,-1.39649 -2.62812,-4.46683 -6.27713,-11.54028 -8.38086,-16.41992 -2.21685,-5.14205 -5.57699,-14.7165 -7.46484,-21.27539 -1.60093,-5.56205 -3.34081,-13.41583 -4.55859,-19.53906 -0.43531,-2.16291 -0.79333,-3.84177 -1.18946,-5.99805 -0.98847,-5.92044 -2.15788,-13.56286 -2.79687,-18.68945 -0.0233,-0.22281 -0.0499,-0.48571 -0.0723,-0.70899 -0.80902,-6.73621 -1.26136,-21.85511 -1.22461,-41.7207 0.044,-23.80261 0.47725,-34.63644 1.77149,-44.33398 0.94203,-7.05846 2.86677,-18.30847 4.2793,-25 1.41252,-6.69153 4.13732,-16.89103 6.05468,-22.66602 1.91736,-5.77499 5.7379,-15.11516 8.49024,-20.75586 2.75233,-5.6407 7.48288,-13.74071 10.51172,-18 3.02883,-4.25929 8.95504,-11.24806 13.16992,-15.53125 4.21488,-4.2832 10.81406,-9.96347 14.66406,-12.62305 3.85,-2.65958 10.15,-6.41342 14,-8.34179 3.85,-1.92838 11.27501,-4.86584 16.5,-6.52735 5.22499,-1.6615 14.00001,-3.80795 19.5,-4.76953 6.82295,-1.19288 15.40098,-1.75594 27,-1.77344 z m -67.18359,153.67206 c -5.46308,24.15065 -10.36752,48.418 -15.31641,72.67755 151.68647,0.30021 0.0147,-0.18767 151.62491,0.28299 C 349.57135,342.27237 363,274.409 363,272.97461 c 0,-1.39073 -114.73562,-0.80897 -150.68359,-0.62482 z"
       id="path22"
       sodipodi:nodetypes="scscssssssssscscscscsscscsscscsccsssssssssscscscscsscscscscsssscsccsssscscsssscscscscsssssscscsscscscscssscscscscscscscssssssscscsssssccsccsssccscccssccccccccccccsccsccccccccccssccccsssssssssssssccccc" />
  </g>
</svg>
